<mxfile host="app.diagrams.net" agent="Mozilla/5.0 (Windows NT 10.0; Win64; x64) AppleWebKit/537.36 (KHTML, like Gecko) Chrome/134.0.0.0 Safari/537.36" version="26.1.0">
  <diagram id="C5RBs43oDa-KdzZeNtuy" name="Page-1">
    <mxGraphModel dx="1434" dy="738" grid="1" gridSize="10" guides="1" tooltips="1" connect="1" arrows="1" fold="1" page="1" pageScale="1" pageWidth="827" pageHeight="1169" math="0" shadow="0">
      <root>
        <mxCell id="WIyWlLk6GJQsqaUBKTNV-0" />
        <mxCell id="WIyWlLk6GJQsqaUBKTNV-1" parent="WIyWlLk6GJQsqaUBKTNV-0" />
        <mxCell id="wrMVdQ6_cMTM91Hg_Pd6-0" value="MicrosoftDataLayerConnection" style="swimlane;fontStyle=1;align=center;verticalAlign=top;childLayout=stackLayout;horizontal=1;startSize=26;horizontalStack=0;resizeParent=1;resizeParentMax=0;resizeLast=0;collapsible=1;marginBottom=0;whiteSpace=wrap;html=1;" vertex="1" parent="WIyWlLk6GJQsqaUBKTNV-1">
          <mxGeometry x="60" y="80" width="220" height="340" as="geometry" />
        </mxCell>
        <mxCell id="wrMVdQ6_cMTM91Hg_Pd6-1" value="&lt;div&gt;- String server&lt;/div&gt;&lt;div&gt;&amp;nbsp; &amp;nbsp; - String database&lt;/div&gt;&lt;div&gt;&amp;nbsp; &amp;nbsp; - String userName&lt;/div&gt;&lt;div&gt;&amp;nbsp; &amp;nbsp; - String password&lt;/div&gt;&lt;div&gt;&amp;nbsp; &amp;nbsp; - int port&lt;/div&gt;" style="text;strokeColor=none;fillColor=none;align=left;verticalAlign=top;spacingLeft=4;spacingRight=4;overflow=hidden;rotatable=0;points=[[0,0.5],[1,0.5]];portConstraint=eastwest;whiteSpace=wrap;html=1;" vertex="1" parent="wrMVdQ6_cMTM91Hg_Pd6-0">
          <mxGeometry y="26" width="220" height="64" as="geometry" />
        </mxCell>
        <mxCell id="wrMVdQ6_cMTM91Hg_Pd6-2" value="" style="line;strokeWidth=1;fillColor=none;align=left;verticalAlign=middle;spacingTop=-1;spacingLeft=3;spacingRight=3;rotatable=0;labelPosition=right;points=[];portConstraint=eastwest;strokeColor=inherit;" vertex="1" parent="wrMVdQ6_cMTM91Hg_Pd6-0">
          <mxGeometry y="90" width="220" height="8" as="geometry" />
        </mxCell>
        <mxCell id="wrMVdQ6_cMTM91Hg_Pd6-3" value="&lt;div&gt;&amp;nbsp;+ MicrosoftDataLayerConnection(String, String, String, String)&lt;/div&gt;&lt;div&gt;&amp;nbsp; &amp;nbsp; + getConnectionString(): String&lt;/div&gt;&lt;div&gt;&amp;nbsp; &amp;nbsp; + getServer(): String&lt;/div&gt;&lt;div&gt;&amp;nbsp; &amp;nbsp; + setServer(String): void&lt;/div&gt;&lt;div&gt;&amp;nbsp; &amp;nbsp; + getDatabase(): String&lt;/div&gt;&lt;div&gt;&amp;nbsp; &amp;nbsp; + setDatabase(String): void&lt;/div&gt;&lt;div&gt;&amp;nbsp; &amp;nbsp; + getUserName(): String&lt;/div&gt;&lt;div&gt;&amp;nbsp; &amp;nbsp; + setUserName(String): void&lt;/div&gt;&lt;div&gt;&amp;nbsp; &amp;nbsp; + getPassword(): String&lt;/div&gt;&lt;div&gt;&amp;nbsp; &amp;nbsp; + setPassword(String): void&lt;/div&gt;&lt;div&gt;&amp;nbsp; &amp;nbsp; + getPort(): int&lt;/div&gt;&lt;div&gt;&amp;nbsp; &amp;nbsp; + setPort(int): void&lt;/div&gt;" style="text;strokeColor=none;fillColor=none;align=left;verticalAlign=top;spacingLeft=4;spacingRight=4;overflow=hidden;rotatable=0;points=[[0,0.5],[1,0.5]];portConstraint=eastwest;whiteSpace=wrap;html=1;" vertex="1" parent="wrMVdQ6_cMTM91Hg_Pd6-0">
          <mxGeometry y="98" width="220" height="242" as="geometry" />
        </mxCell>
        <mxCell id="wrMVdQ6_cMTM91Hg_Pd6-4" value="Data Layer" style="swimlane;fontStyle=1;align=center;verticalAlign=top;childLayout=stackLayout;horizontal=1;startSize=26;horizontalStack=0;resizeParent=1;resizeParentMax=0;resizeLast=0;collapsible=1;marginBottom=0;whiteSpace=wrap;html=1;" vertex="1" parent="WIyWlLk6GJQsqaUBKTNV-1">
          <mxGeometry x="480" y="70" width="260" height="400" as="geometry" />
        </mxCell>
        <mxCell id="wrMVdQ6_cMTM91Hg_Pd6-5" value="&amp;nbsp; - MicrosoftDataLayerConnection connection" style="text;strokeColor=none;fillColor=none;align=left;verticalAlign=top;spacingLeft=4;spacingRight=4;overflow=hidden;rotatable=0;points=[[0,0.5],[1,0.5]];portConstraint=eastwest;whiteSpace=wrap;html=1;" vertex="1" parent="wrMVdQ6_cMTM91Hg_Pd6-4">
          <mxGeometry y="26" width="260" height="54" as="geometry" />
        </mxCell>
        <mxCell id="wrMVdQ6_cMTM91Hg_Pd6-6" value="" style="line;strokeWidth=1;fillColor=none;align=left;verticalAlign=middle;spacingTop=-1;spacingLeft=3;spacingRight=3;rotatable=0;labelPosition=right;points=[];portConstraint=eastwest;strokeColor=inherit;" vertex="1" parent="wrMVdQ6_cMTM91Hg_Pd6-4">
          <mxGeometry y="80" width="260" height="8" as="geometry" />
        </mxCell>
        <mxCell id="wrMVdQ6_cMTM91Hg_Pd6-7" value="&lt;div&gt;&amp;nbsp;+ DataLayer()&lt;/div&gt;&lt;div&gt;&amp;nbsp; &amp;nbsp; + SelectStoreProcedure(String, Map&amp;lt;String, Object&amp;gt;): ResultSet&lt;/div&gt;&lt;div&gt;&amp;nbsp; &amp;nbsp; + SelectGetTable(String, Map&amp;lt;String, Object&amp;gt;): DefaultTableModel&lt;/div&gt;&lt;div&gt;&amp;nbsp; &amp;nbsp; + SelectGetTable(String): DefaultTableModel&lt;/div&gt;&lt;div&gt;&amp;nbsp; &amp;nbsp; + InsertOrUpdateOrDelete(String, List&amp;lt;Object&amp;gt;)&lt;/div&gt;&lt;div&gt;&amp;nbsp; &amp;nbsp; + InsertOrUpdateOrDelete(String, List&amp;lt;Object&amp;gt;, int): int&lt;/div&gt;&lt;div&gt;&amp;nbsp; &amp;nbsp; + InsertOrUpdateOrDelete(String, List&amp;lt;Object&amp;gt;, int[]): int&lt;/div&gt;&lt;div&gt;&amp;nbsp; &amp;nbsp; + getConntion(): Connection&lt;/div&gt;" style="text;strokeColor=none;fillColor=none;align=left;verticalAlign=top;spacingLeft=4;spacingRight=4;overflow=hidden;rotatable=0;points=[[0,0.5],[1,0.5]];portConstraint=eastwest;whiteSpace=wrap;html=1;" vertex="1" parent="wrMVdQ6_cMTM91Hg_Pd6-4">
          <mxGeometry y="88" width="260" height="312" as="geometry" />
        </mxCell>
        <mxCell id="wrMVdQ6_cMTM91Hg_Pd6-12" value="1" style="endArrow=open;html=1;endSize=12;startArrow=diamondThin;startSize=14;startFill=0;edgeStyle=orthogonalEdgeStyle;align=left;verticalAlign=bottom;rounded=0;entryX=-0.012;entryY=0.272;entryDx=0;entryDy=0;entryPerimeter=0;" edge="1" parent="WIyWlLk6GJQsqaUBKTNV-1" target="wrMVdQ6_cMTM91Hg_Pd6-7">
          <mxGeometry x="-1" y="3" relative="1" as="geometry">
            <mxPoint x="280" y="240" as="sourcePoint" />
            <mxPoint x="440" y="240" as="targetPoint" />
          </mxGeometry>
        </mxCell>
        <mxCell id="wrMVdQ6_cMTM91Hg_Pd6-15" value="" style="endArrow=none;html=1;rounded=0;" edge="1" parent="WIyWlLk6GJQsqaUBKTNV-1">
          <mxGeometry width="50" height="50" relative="1" as="geometry">
            <mxPoint y="520" as="sourcePoint" />
            <mxPoint x="820" y="520" as="targetPoint" />
          </mxGeometry>
        </mxCell>
        <mxCell id="wrMVdQ6_cMTM91Hg_Pd6-16" value="Data Layer" style="text;html=1;align=center;verticalAlign=middle;whiteSpace=wrap;rounded=0;" vertex="1" parent="WIyWlLk6GJQsqaUBKTNV-1">
          <mxGeometry x="20" y="20" width="180" height="30" as="geometry" />
        </mxCell>
        <mxCell id="wrMVdQ6_cMTM91Hg_Pd6-17" value="Businees Layer" style="text;html=1;align=center;verticalAlign=middle;whiteSpace=wrap;rounded=0;" vertex="1" parent="WIyWlLk6GJQsqaUBKTNV-1">
          <mxGeometry x="10" y="540" width="180" height="30" as="geometry" />
        </mxCell>
      </root>
    </mxGraphModel>
  </diagram>
</mxfile>
